<svg xmlns="http://www.w3.org/2000/svg"><defs><linearGradient id="b" x1="11.606" y1="40.42" x2="56.163" y2="53.198" gradientUnits="userSpaceOnUse"><stop stop-color="#ADC9FB"/><stop offset="1" stop-color="#AFADFB"/></linearGradient><clipPath id="a"><path fill="#fff" d="M0 0h89v89H0z"/></clipPath><clipPath id="a"><path fill="#fff" transform="translate(0 .924)" d="M0 0h89v89H0z"/></clipPath><linearGradient id="b" x1="28.869" y1="73.599" x2="117.121" y2="130.935" gradientUnits="userSpaceOnUse"><stop stop-color="#A7C0FF"/><stop offset="1" stop-color="#DB73FF" stop-opacity=".5"/></linearGradient><clipPath id="a"><path fill="#fff" transform="rotate(-32.459 126.19 36.727)" d="M0 0h136.202v121.248H0z"/></clipPath><linearGradient id="a" x1="10.534" y1="39.989" x2="564.482" y2="42.721" gradientUnits="userSpaceOnUse"><stop stop-color="#F6EEF9"/><stop offset="1" stop-color="#EBEBEB" stop-opacity=".5"/></linearGradient></defs><symbol id="loupe-mask" viewBox="0 0 89 89"><g clip-path="url(#a)"><path d="M87.783 76.954l-17.33-17.331a4.169 4.169 0 0 0-2.956-1.217h-2.833a35.98 35.98 0 0 0 7.648-22.25C72.313 16.183 56.13 0 36.157 0S0 16.183 0 36.156s16.183 36.157 36.156 36.157a35.98 35.98 0 0 0 22.25-7.649v2.834c0 1.112.435 2.172 1.217 2.954l17.33 17.331c1.635 1.634 4.277 1.634 5.894 0l4.919-4.92a4.191 4.191 0 0 0 .017-5.91zM36.156 58.406c-12.29 0-22.25-9.943-22.25-22.25 0-12.29 9.943-22.25 22.25-22.25 12.29 0 22.25 9.943 22.25 22.25 0 12.29-9.943 22.25-22.25 22.25z" fill="#ADC9FB"/><path d="M38.498 46.458h-4.662l.37-8.14-6.882 4.366-2.294-3.996 7.178-3.7-7.178-3.7 2.294-4.07 6.882 4.366-.37-8.14h4.662l-.37 8.14 6.808-4.366 2.368 4.07-7.178 3.7 7.178 3.7-2.368 3.996-6.808-4.366.37 8.14z" fill="url(#b)"/></g></symbol><symbol id="loupe-small" viewBox="0 0 19 19"><path d="M18.463 15.671l-3.52-3.505a.849.849 0 0 0-.6-.246h-.576a7.257 7.257 0 0 0 1.554-4.5c0-4.04-3.287-7.312-7.344-7.312S.633 3.38.633 7.42c0 4.04 3.287 7.313 7.344 7.313a7.328 7.328 0 0 0 4.52-1.547v.573c0 .225.087.44.246.598l3.52 3.505c.332.33.869.33 1.197 0l1-.995a.845.845 0 0 0 .003-1.196zm-10.486-3.75c-2.497 0-4.52-2.012-4.52-4.5 0-2.486 2.02-4.5 4.52-4.5 2.496 0 4.52 2.01 4.52 4.5 0 2.485-2.02 4.5-4.52 4.5z"/></symbol><symbol id="loupe-word" viewBox="0 0 89 90"><g clip-path="url(#a)"><path d="M87.783 77.877l-17.33-17.33a4.168 4.168 0 0 0-2.956-1.217h-2.833a35.98 35.98 0 0 0 7.648-22.25C72.313 17.107 56.13.924 36.157.924S0 17.107 0 37.08s16.183 36.156 36.156 36.156a35.98 35.98 0 0 0 22.25-7.648v2.833c0 1.113.435 2.173 1.217 2.955l17.33 17.331c1.635 1.634 4.277 1.634 5.894 0l4.919-4.92a4.191 4.191 0 0 0 .017-5.91zM36.156 59.33c-12.29 0-22.25-9.943-22.25-22.25 0-12.29 9.943-22.25 22.25-22.25 12.29 0 22.25 9.943 22.25 22.25 0 12.29-9.943 22.25-22.25 22.25z" fill="var(--primary-stop)"/><circle cx="23.574" cy="37.567" r="4.205" fill="var(--primary-stop)"/><circle cx="35.589" cy="37.567" r="4.205" fill="var(--second-stop)"/><circle cx="47.604" cy="37.567" r="4.205" fill="var(--second-stop)"/></g></symbol><symbol id="newspaper" viewBox="0 0 180 176"><g clip-path="url(#a)"><path d="M118.272 16.199L25.695 75.084a5.68 5.68 0 0 0-1.739 7.841l1.017 1.599-7.98 5.076a5.68 5.68 0 0 0-1.739 7.842l34.57 54.35c3.931 6.18 12.12 8.008 18.29 4.083l94.175-59.9c5.289-3.365 6.846-10.386 3.476-15.684l-39.654-62.343a5.68 5.68 0 0 0-7.839-1.75zM62.014 146.283a1.894 1.894 0 0 1-2.613-.583l-31.52-49.554 3.193-2.03 31.52 49.554a1.894 1.894 0 0 1-.58 2.613zm45.054-33.147l-30.328 19.29a2.84 2.84 0 0 1-3.919-.875l-1.017-1.598a2.84 2.84 0 0 1 .87-3.921L103 106.742a2.84 2.84 0 0 1 3.919.875l1.017 1.598a2.84 2.84 0 0 1-.869 3.921zm41.5-26.397l-30.327 19.29a2.84 2.84 0 0 1-3.92-.875l-1.016-1.598a2.84 2.84 0 0 1 .869-3.92l30.327-19.29a2.84 2.84 0 0 1 3.919.874l1.017 1.599a2.84 2.84 0 0 1-.869 3.92zm-53.702 7.215l-30.327 19.29a2.84 2.84 0 0 1-3.92-.875l-1.016-1.599a2.84 2.84 0 0 1 .87-3.92l30.326-19.29a2.84 2.84 0 0 1 3.92.874l1.017 1.599a2.84 2.84 0 0 1-.87 3.92zm41.501-26.397l-30.327 19.29a2.84 2.84 0 0 1-3.92-.875l-1.017-1.599a2.84 2.84 0 0 1 .87-3.92l30.327-19.29a2.84 2.84 0 0 1 3.919.875l1.017 1.598a2.84 2.84 0 0 1-.869 3.92zm-12.201-19.183L52.338 94.061a2.84 2.84 0 0 1-3.92-.875l-5.083-7.992a2.84 2.84 0 0 1 .869-3.921l71.827-45.687a2.84 2.84 0 0 1 3.92.875l5.084 7.993a2.84 2.84 0 0 1-.869 3.92z" fill="url(#b)" fill-opacity=".15"/></g></symbol><symbol id="word" viewBox="0 0 496 98"><path d="M152.035 1.624l-30.915 94.5H97.63l-20.79-63.99-21.465 63.99H32.02L.97 1.624h22.68l21.33 66.42 22.275-66.42h20.25l21.6 66.96 22.005-66.96h20.925zm64.888 96.12c-9.81 0-18.675-2.115-26.595-6.346-7.83-4.23-13.995-10.034-18.495-17.414-4.41-7.47-6.615-15.84-6.615-25.11s2.205-17.596 6.615-24.976c4.5-7.47 10.665-13.32 18.495-17.55 7.92-4.23 16.785-6.344 26.595-6.344 9.81 0 18.63 2.115 26.46 6.345 7.83 4.23 13.995 10.08 18.495 17.55 4.5 7.38 6.75 15.704 6.75 24.974s-2.25 17.64-6.75 25.11c-4.5 7.38-10.665 13.185-18.495 17.415-7.83 4.23-16.65 6.346-26.46 6.346zm0-18.63c5.58 0 10.62-1.26 15.12-3.78 4.5-2.61 8.01-6.21 10.53-10.8 2.61-4.59 3.915-9.81 3.915-15.66s-1.305-11.07-3.915-15.66c-2.52-4.59-6.03-8.145-10.53-10.665-4.5-2.61-9.54-3.915-15.12-3.915s-10.62 1.305-15.12 3.915c-4.5 2.52-8.055 6.075-10.665 10.665-2.52 4.59-3.78 9.81-3.78 15.66s1.26 11.07 3.78 15.66c2.61 4.59 6.165 8.19 10.665 10.8 4.5 2.52 9.54 3.78 15.12 3.78zm136.451 17.01l-18.225-26.325H315.034v26.325h-21.87v-94.5h40.905c8.37 0 15.615 1.395 21.735 4.185 6.21 2.79 10.98 6.75 14.31 11.88 3.33 5.13 4.995 11.204 4.995 18.224s-1.71 13.096-5.13 18.226c-3.33 5.04-8.1 8.91-14.31 11.61l21.195 30.375h-23.49zm-.405-60.21c0-5.31-1.71-9.36-5.13-12.15-3.42-2.88-8.415-4.32-14.985-4.32h-17.82v32.94h17.82c6.57 0 11.565-1.44 14.985-4.32 3.42-2.88 5.13-6.93 5.13-12.15zm47.567-34.29h42.93c10.26 0 19.305 1.98 27.135 5.94 7.92 3.87 14.04 9.36 18.36 16.47 4.41 7.11 6.615 15.39 6.615 24.84s-2.205 17.73-6.615 24.84c-4.32 7.11-10.44 12.645-18.36 16.605-7.83 3.87-16.875 5.805-27.135 5.805h-42.93v-94.5zm41.85 76.544c9.45 0 16.965-2.61 22.545-7.83 5.67-5.31 8.505-12.464 8.505-21.464 0-9-2.835-16.11-8.505-21.33-5.58-5.31-13.095-7.966-22.545-7.966h-19.98v58.59h19.98z" fill="url(#a)"/></symbol></svg>